<?xml version="1.0" encoding="utf-8"?>
<!-- Generator: Adobe Illustrator 23.0.3, SVG Export Plug-In . SVG Version: 6.00 Build 0)  -->
<svg version="1.1" id="Layer_1" xmlns="http://www.w3.org/2000/svg" xmlns:xlink="http://www.w3.org/1999/xlink" x="0px" y="0px"
	 viewBox="0 0 50.69 40.64" style="enable-background:new 0 0 50.69 40.64;" xml:space="preserve">
<style type="text/css">
	.st0{fill:#001F3F;}
	.st1{fill:#FFFFFF;}
	.st2{fill:none;}
	.st3{fill:#3FAE79;}
	.st4{fill:#2D3B7A;}
	.st5{fill:#232323;}
	.st6{fill:#00CDD0;}
	.st7{fill:#333333;}
	.st8{fill:#FFD600;}
	.st9{clip-path:url(#SVGID_6_);fill:#3FAE79;}
	.st10{clip-path:url(#SVGID_6_);fill:#001F3F;}
	.st11{opacity:0.4;fill:url(#);}
	.st12{display:none;}
	.st13{display:inline;fill:url(#SVGID_7_);}
	.st14{display:inline;fill:url(#SVGID_8_);}
	.st15{display:inline;}
	.st16{fill:url(#SVGID_9_);}
	.st17{fill:url(#SVGID_10_);}
	.st18{fill:url(#SVGID_11_);}
	.st19{fill:url(#SVGID_12_);}
	.st20{fill:url(#SVGID_13_);}
	.st21{fill:url(#SVGID_14_);}
	.st22{fill:url(#SVGID_15_);}
	.st23{fill:url(#SVGID_16_);}
	.st24{fill:url(#SVGID_17_);}
	.st25{fill:url(#SVGID_18_);}
	.st26{fill:url(#SVGID_19_);}
	.st27{fill:url(#SVGID_20_);}
	.st28{fill:url(#SVGID_21_);}
	.st29{fill:url(#SVGID_22_);}
	.st30{fill:url(#SVGID_23_);}
	.st31{fill:url(#SVGID_24_);}
	.st32{fill:url(#SVGID_25_);}
	.st33{fill:url(#SVGID_26_);}
	.st34{display:inline;fill:url(#SVGID_27_);}
	.st35{display:inline;fill:url(#SVGID_28_);}
	.st36{display:inline;fill:url(#SVGID_29_);}
	.st37{fill:url(#SVGID_30_);}
	.st38{fill:url(#SVGID_31_);}
	.st39{fill:url(#SVGID_32_);}
	.st40{fill:url(#SVGID_33_);}
	.st41{fill:url(#SVGID_34_);}
	.st42{display:none;fill:url(#SVGID_35_);}
	.st43{display:inline;fill:url(#SVGID_36_);}
	.st44{display:inline;fill:url(#SVGID_37_);}
	.st45{display:inline;fill:url(#SVGID_38_);}
	.st46{fill:#8EFCFE;}
	.st47{fill:none;stroke:#3FAE79;stroke-miterlimit:10;}
	.st48{fill:#001B36;}
	.st49{fill:#369668;}
	.st50{fill:#3FAE79;fill-opacity:0.8;}
	.st51{opacity:0.9;fill:#001F3F;}
	.st52{fill:none;stroke:#001F3F;stroke-width:3;stroke-miterlimit:10;}
	.st53{enable-background:new    ;}
</style>
<g>
	<path class="st1" d="M30.8,40.58c-1.94-0.43-2.81-1.49-2.82-3.43c-0.01-2.14,0.01-4.27,0-6.41c-0.01-1.9-0.98-2.86-2.9-2.87
		c-1.56-0.01-3.12-0.02-4.68,0c-1.78,0.02-2.76,1.01-2.77,2.79c-0.02,2.2,0.01,4.41-0.01,6.61c-0.01,2-1.31,3.32-3.3,3.34
		c-1.93,0.02-3.86,0.01-5.8,0c-2.12-0.01-3.42-1.3-3.43-3.43c-0.02-4.44-0.02-8.88,0.01-13.32c0.01-0.82-0.2-1.2-1.07-1.1
		c-0.5,0.06-1.02,0.01-1.52-0.01c-1.12-0.05-1.97-0.56-2.35-1.63c-0.38-1.06-0.1-2.03,0.74-2.77c1.9-1.69,3.82-3.36,5.73-5.03
		c4.67-4.08,9.34-8.16,14-12.25c1.66-1.45,2.7-1.45,4.35,0c4.39,3.84,8.78,7.67,13.17,11.51c0.18,0.15,0.34,0.32,0.37,0.35
		c-1.16,0.94-2.42,1.75-3.42,2.82c-1.68,1.78-2.31,4.03-2.21,6.46c0.03,0.82-0.14,1.43-0.85,1.99c-1.21,0.96-1.68,2.35-1.69,3.88
		c-0.01,3.36-0.03,6.71,0.02,10.07C30.38,38.94,30.64,39.73,30.8,40.58z"/>
	<path class="st1" d="M35.6,25.26c0-1.14-0.02-2.32,0-3.5c0.08-3.36,2.02-5.78,5.06-6.32c4.01-0.71,7.37,2.03,7.46,6.12
		c0.03,1.25,0,2.5,0,3.72c2.3,0.84,2.55,1.19,2.55,3.58c0,2.95,0.01,5.89,0,8.84c-0.01,2.02-0.91,2.92-2.91,2.92
		c-3.93,0.01-7.86,0.01-11.79,0c-2.03,0-2.91-0.89-2.92-2.91c-0.01-2.91,0-5.83,0-8.74C33.06,26.47,33.26,26.17,35.6,25.26z
		 M44.46,25.38c0-1.46,0.05-2.81-0.01-4.16c-0.05-1.25-1.06-2.13-2.36-2.21c-1.45-0.08-2.62,0.66-2.75,1.98
		c-0.14,1.43-0.03,2.89-0.03,4.38C41.02,25.38,42.67,25.38,44.46,25.38z"/>
</g>
</svg>
