<?xml version="1.0" encoding="utf-8"?>
<!-- Generator: Adobe Illustrator 23.0.3, SVG Export Plug-In . SVG Version: 6.00 Build 0)  -->
<svg version="1.1" id="Layer_1" xmlns="http://www.w3.org/2000/svg" xmlns:xlink="http://www.w3.org/1999/xlink" x="0px" y="0px"
	 viewBox="0 0 49.25 43.81" style="enable-background:new 0 0 49.25 43.81;" xml:space="preserve">
<style type="text/css">
	.st0{fill:#001F3F;}
	.st1{fill:#FFFFFF;}
	.st2{fill:none;}
	.st3{fill:#3FAE79;}
	.st4{fill:#2D3B7A;}
	.st5{fill:#232323;}
	.st6{fill:#00CDD0;}
	.st7{fill:#333333;}
	.st8{fill:#FFD600;}
	.st9{clip-path:url(#SVGID_6_);fill:#3FAE79;}
	.st10{clip-path:url(#SVGID_6_);fill:#001F3F;}
	.st11{opacity:0.4;fill:url(#);}
	.st12{display:none;}
	.st13{display:inline;fill:url(#SVGID_7_);}
	.st14{display:inline;fill:url(#SVGID_8_);}
	.st15{display:inline;}
	.st16{fill:url(#SVGID_9_);}
	.st17{fill:url(#SVGID_10_);}
	.st18{fill:url(#SVGID_11_);}
	.st19{fill:url(#SVGID_12_);}
	.st20{fill:url(#SVGID_13_);}
	.st21{fill:url(#SVGID_14_);}
	.st22{fill:url(#SVGID_15_);}
	.st23{fill:url(#SVGID_16_);}
	.st24{fill:url(#SVGID_17_);}
	.st25{fill:url(#SVGID_18_);}
	.st26{fill:url(#SVGID_19_);}
	.st27{fill:url(#SVGID_20_);}
	.st28{fill:url(#SVGID_21_);}
	.st29{fill:url(#SVGID_22_);}
	.st30{fill:url(#SVGID_23_);}
	.st31{fill:url(#SVGID_24_);}
	.st32{fill:url(#SVGID_25_);}
	.st33{fill:url(#SVGID_26_);}
	.st34{display:inline;fill:url(#SVGID_27_);}
	.st35{display:inline;fill:url(#SVGID_28_);}
	.st36{display:inline;fill:url(#SVGID_29_);}
	.st37{fill:url(#SVGID_30_);}
	.st38{fill:url(#SVGID_31_);}
	.st39{fill:url(#SVGID_32_);}
	.st40{fill:url(#SVGID_33_);}
	.st41{fill:url(#SVGID_34_);}
	.st42{display:none;fill:url(#SVGID_35_);}
	.st43{display:inline;fill:url(#SVGID_36_);}
	.st44{display:inline;fill:url(#SVGID_37_);}
	.st45{display:inline;fill:url(#SVGID_38_);}
	.st46{fill:#8EFCFE;}
	.st47{fill:none;stroke:#3FAE79;stroke-miterlimit:10;}
	.st48{fill:#001B36;}
	.st49{fill:#369668;}
	.st50{fill:#3FAE79;fill-opacity:0.8;}
	.st51{opacity:0.9;fill:#001F3F;}
	.st52{fill:none;stroke:#001F3F;stroke-width:3;stroke-miterlimit:10;}
	.st53{enable-background:new    ;}
</style>
<g>
	<path class="st1" d="M20.2,27.27c-1.2,3.14-2.36,6.14-3.5,9.15c-1.18,3.08-1.38,3.22-4.72,3.22c-2.16,0-4.31,0-6.66,0
		c0,0.56,0.02,1.06,0,1.55c-0.08,1.54-1.22,2.65-2.69,2.61c-1.44-0.03-2.56-1.1-2.58-2.6c-0.04-2.82-0.04-5.64,0-8.46
		c0.02-1.59,1.1-2.54,2.7-2.53c1.51,0.02,2.5,0.98,2.58,2.54c0.02,0.43,0,0.87,0,1.48c2.12,0,4.15,0.01,6.18-0.02
		c0.18,0,0.45-0.26,0.52-0.46c1.1-2.79,2.17-5.59,3.28-8.48c-1.01-0.43-1.93-0.84-2.87-1.23c-3.37-1.41-6.75-2.81-10.12-4.22
		c-2.32-0.97-2.86-2.54-1.62-4.72C3.19,10.75,5.7,6.36,8.2,1.98c1.16-2.04,2.28-2.42,4.46-1.52c10.56,4.4,21.12,8.81,31.68,13.19
		c1.17,0.48,2.06,1.15,2.15,2.5c0.09,1.32-0.62,2.16-1.68,2.86c-5.16,3.41-10.31,6.83-15.43,10.3c-1.19,0.8-2.31,0.91-3.6,0.32
		C23.99,28.83,22.16,28.1,20.2,27.27z"/>
	<path class="st1" d="M34.14,29.59c1.32-0.88,2.44-1.63,3.56-2.38c2.31-1.55,4.63-3.07,6.92-4.65c0.59-0.41,1.07-0.47,1.7-0.14
		c0.61,0.33,1.27,0.56,1.9,0.84c0.92,0.41,1.27,1.08,0.87,2.04c-1.09,2.64-2.18,5.27-3.29,7.9c-0.37,0.88-1.05,1.22-1.95,0.81
		C40.68,32.58,37.53,31.14,34.14,29.59z"/>
</g>
</svg>
