<?xml version="1.0" encoding="utf-8"?>
<!-- Generator: Adobe Illustrator 23.0.3, SVG Export Plug-In . SVG Version: 6.00 Build 0)  -->
<svg version="1.1" id="Layer_1" xmlns="http://www.w3.org/2000/svg" xmlns:xlink="http://www.w3.org/1999/xlink" x="0px" y="0px"
	 viewBox="0 0 47.21 50.82" style="enable-background:new 0 0 47.21 50.82;" xml:space="preserve">
<style type="text/css">
	.st0{fill:#001F3F;}
	.st1{fill:#FFFFFF;}
	.st2{fill:none;}
	.st3{fill:#3FAE79;}
	.st4{fill:#2D3B7A;}
	.st5{fill:#232323;}
	.st6{fill:#00CDD0;}
	.st7{fill:#333333;}
	.st8{fill:#FFD600;}
	.st9{clip-path:url(#SVGID_6_);fill:#3FAE79;}
	.st10{clip-path:url(#SVGID_6_);fill:#001F3F;}
	.st11{opacity:0.4;fill:url(#);}
	.st12{display:none;}
	.st13{display:inline;fill:url(#SVGID_7_);}
	.st14{display:inline;fill:url(#SVGID_8_);}
	.st15{display:inline;}
	.st16{fill:url(#SVGID_9_);}
	.st17{fill:url(#SVGID_10_);}
	.st18{fill:url(#SVGID_11_);}
	.st19{fill:url(#SVGID_12_);}
	.st20{fill:url(#SVGID_13_);}
	.st21{fill:url(#SVGID_14_);}
	.st22{fill:url(#SVGID_15_);}
	.st23{fill:url(#SVGID_16_);}
	.st24{fill:url(#SVGID_17_);}
	.st25{fill:url(#SVGID_18_);}
	.st26{fill:url(#SVGID_19_);}
	.st27{fill:url(#SVGID_20_);}
	.st28{fill:url(#SVGID_21_);}
	.st29{fill:url(#SVGID_22_);}
	.st30{fill:url(#SVGID_23_);}
	.st31{fill:url(#SVGID_24_);}
	.st32{fill:url(#SVGID_25_);}
	.st33{fill:url(#SVGID_26_);}
	.st34{display:inline;fill:url(#SVGID_27_);}
	.st35{display:inline;fill:url(#SVGID_28_);}
	.st36{display:inline;fill:url(#SVGID_29_);}
	.st37{fill:url(#SVGID_30_);}
	.st38{fill:url(#SVGID_31_);}
	.st39{fill:url(#SVGID_32_);}
	.st40{fill:url(#SVGID_33_);}
	.st41{fill:url(#SVGID_34_);}
	.st42{display:none;fill:url(#SVGID_35_);}
	.st43{display:inline;fill:url(#SVGID_36_);}
	.st44{display:inline;fill:url(#SVGID_37_);}
	.st45{display:inline;fill:url(#SVGID_38_);}
	.st46{fill:#8EFCFE;}
	.st47{fill:none;stroke:#3FAE79;stroke-miterlimit:10;}
	.st48{fill:#001B36;}
	.st49{fill:#369668;}
	.st50{fill:#3FAE79;fill-opacity:0.8;}
	.st51{opacity:0.9;fill:#001F3F;}
	.st52{fill:none;stroke:#001F3F;stroke-width:3;stroke-miterlimit:10;}
	.st53{enable-background:new    ;}
</style>
<g>
	<path class="st1" d="M23.63,43.97c-2.06,1.64-3.94,3.43-6.1,4.79c-3.82,2.41-7.91,2.82-12.01,0.63c-4.93-2.64-6.89-8.25-4.51-13.82
		c2.45-5.75,5.27-11.34,7.96-16.99c1.82-3.81,3.69-7.59,5.58-11.36c0.61-1.21,1.34-2.36,2.09-3.49c2.14-3.21,5.28-4.07,8.9-3.63
		c1.72,0.21,3.1,1.18,4.04,2.6c1.49,2.26,3.08,4.5,4.28,6.92c4.14,8.39,8.23,16.81,12.15,25.31c3.24,7.03-0.31,14.09-7.65,15.62
		c-3.27,0.68-6.3-0.18-8.98-1.99C27.34,47.2,25.52,45.5,23.63,43.97z M25.59,41.75c2.05,1.58,4.04,3.36,6.27,4.76
		c3.21,2.03,7.07,1.55,9.85-0.89c2.56-2.26,3.26-5.59,1.58-9.17c-3.98-8.48-8.07-16.9-12.16-25.32c-0.95-1.96-1.9-3.95-3.15-5.72
		c-2.31-3.27-6.66-3.13-8.95,0.16c-0.58,0.83-1.12,1.71-1.56,2.62c-4.06,8.28-8.11,16.56-12.11,24.86c-0.76,1.57-1.5,3.18-1.94,4.86
		c-1.51,5.66,2.7,10.43,8.46,9.72c4.25-0.52,6.9-3.43,9.54-6.12c-1.6-2.67-3.21-5.15-4.6-7.75c-1.23-2.29-1.85-4.79-1.67-7.44
		c0.33-4.72,3.82-7.72,8.9-7.64c4.54,0.07,7.85,3.34,8.05,7.88c0.12,2.76-0.63,5.31-1.93,7.67C28.83,36.66,27.3,38.97,25.59,41.75z
		 M23.48,38.76c2.59-2.47,5.16-7.38,5.5-10.56c0.1-0.9,0.03-1.84-0.12-2.74c-0.28-1.6-1.27-2.67-2.77-3.29
		c-4.56-1.87-8.49,1.11-7.9,5.99C18.69,32.29,20.98,35.51,23.48,38.76z"/>
</g>
</svg>
