<?xml version="1.0" encoding="utf-8"?>
<!-- Generator: Adobe Illustrator 23.0.3, SVG Export Plug-In . SVG Version: 6.00 Build 0)  -->
<svg version="1.1" id="Layer_1" xmlns="http://www.w3.org/2000/svg" xmlns:xlink="http://www.w3.org/1999/xlink" x="0px" y="0px"
	 viewBox="0 0 32.36 47.28" style="enable-background:new 0 0 32.36 47.28;" xml:space="preserve">
<style type="text/css">
	.st0{fill:#001F3F;}
	.st1{fill:#FFFFFF;}
	.st2{fill:none;}
	.st3{fill:#3FAE79;}
	.st4{fill:#2D3B7A;}
	.st5{fill:#232323;}
	.st6{fill:#00CDD0;}
	.st7{fill:#333333;}
	.st8{fill:#FFD600;}
	.st9{clip-path:url(#SVGID_6_);fill:#3FAE79;}
	.st10{clip-path:url(#SVGID_6_);fill:#001F3F;}
	.st11{opacity:0.4;fill:url(#);}
	.st12{display:none;}
	.st13{display:inline;fill:url(#SVGID_7_);}
	.st14{display:inline;fill:url(#SVGID_8_);}
	.st15{display:inline;}
	.st16{fill:url(#SVGID_9_);}
	.st17{fill:url(#SVGID_10_);}
	.st18{fill:url(#SVGID_11_);}
	.st19{fill:url(#SVGID_12_);}
	.st20{fill:url(#SVGID_13_);}
	.st21{fill:url(#SVGID_14_);}
	.st22{fill:url(#SVGID_15_);}
	.st23{fill:url(#SVGID_16_);}
	.st24{fill:url(#SVGID_17_);}
	.st25{fill:url(#SVGID_18_);}
	.st26{fill:url(#SVGID_19_);}
	.st27{fill:url(#SVGID_20_);}
	.st28{fill:url(#SVGID_21_);}
	.st29{fill:url(#SVGID_22_);}
	.st30{fill:url(#SVGID_23_);}
	.st31{fill:url(#SVGID_24_);}
	.st32{fill:url(#SVGID_25_);}
	.st33{fill:url(#SVGID_26_);}
	.st34{display:inline;fill:url(#SVGID_27_);}
	.st35{display:inline;fill:url(#SVGID_28_);}
	.st36{display:inline;fill:url(#SVGID_29_);}
	.st37{fill:url(#SVGID_30_);}
	.st38{fill:url(#SVGID_31_);}
	.st39{fill:url(#SVGID_32_);}
	.st40{fill:url(#SVGID_33_);}
	.st41{fill:url(#SVGID_34_);}
	.st42{display:none;fill:url(#SVGID_35_);}
	.st43{display:inline;fill:url(#SVGID_36_);}
	.st44{display:inline;fill:url(#SVGID_37_);}
	.st45{display:inline;fill:url(#SVGID_38_);}
	.st46{fill:#8EFCFE;}
	.st47{fill:none;stroke:#3FAE79;stroke-miterlimit:10;}
	.st48{fill:#001B36;}
	.st49{fill:#369668;}
	.st50{fill:#3FAE79;fill-opacity:0.8;}
	.st51{opacity:0.9;fill:#001F3F;}
	.st52{fill:none;stroke:#001F3F;stroke-width:3;stroke-miterlimit:10;}
	.st53{enable-background:new    ;}
</style>
<path class="st1" d="M0.01,23.59c0-5.25-0.02-10.49,0.01-15.74C0.04,3.98,1.87,1.35,5.18,0.4c0.86-0.25,1.78-0.37,2.67-0.38
	C13.38-0.01,18.9,0,24.42,0.01c4.86,0.01,7.89,2.92,7.91,7.77c0.04,10.57,0.04,21.14,0,31.71c-0.02,4.85-3.05,7.78-7.89,7.79
	c-5.4,0.01-10.81,0-16.21,0c-5.29,0-8.2-2.89-8.22-8.18C0,33.92,0.01,28.76,0.01,23.59z M10.21,4.37c-0.85,0-1.63,0-2.42,0
	c-2.52,0.01-3.54,1-3.54,3.49c0,10.53-0.01,21.06,0,31.59c0,2.43,1.03,3.45,3.46,3.45c5.56,0.01,11.12,0,16.68,0
	c2.76,0,3.71-0.94,3.71-3.68c0-10.41,0-20.82,0-31.24c0-0.43,0.01-0.88-0.07-1.3c-0.23-1.15-0.92-2.03-2.05-2.19
	c-1.26-0.18-2.57-0.04-3.9-0.04C22.05,4.76,22.01,4.99,22,5.22c-0.08,1.82-0.34,2.07-2.21,2.07c-2.05,0-4.1,0-6.15,0
	C10.68,7.29,10.68,7.29,10.21,4.37z"/>
</svg>
