<?xml version="1.0" encoding="utf-8"?>
<!-- Generator: Adobe Illustrator 23.0.3, SVG Export Plug-In . SVG Version: 6.00 Build 0)  -->
<svg version="1.1" id="Layer_1" xmlns="http://www.w3.org/2000/svg" xmlns:xlink="http://www.w3.org/1999/xlink" x="0px" y="0px"
	 viewBox="0 0 47.66 42.44" style="enable-background:new 0 0 47.66 42.44;" xml:space="preserve">
<style type="text/css">
	.st0{fill:#001F3F;}
	.st1{fill:#FFFFFF;}
	.st2{fill:none;}
	.st3{fill:#3FAE79;}
	.st4{fill:#2D3B7A;}
	.st5{fill:#232323;}
	.st6{fill:#00CDD0;}
	.st7{fill:#333333;}
	.st8{fill:#FFD600;}
	.st9{clip-path:url(#SVGID_6_);fill:#3FAE79;}
	.st10{clip-path:url(#SVGID_6_);fill:#001F3F;}
	.st11{opacity:0.4;fill:url(#);}
	.st12{display:none;}
	.st13{display:inline;fill:url(#SVGID_7_);}
	.st14{display:inline;fill:url(#SVGID_8_);}
	.st15{display:inline;}
	.st16{fill:url(#SVGID_9_);}
	.st17{fill:url(#SVGID_10_);}
	.st18{fill:url(#SVGID_11_);}
	.st19{fill:url(#SVGID_12_);}
	.st20{fill:url(#SVGID_13_);}
	.st21{fill:url(#SVGID_14_);}
	.st22{fill:url(#SVGID_15_);}
	.st23{fill:url(#SVGID_16_);}
	.st24{fill:url(#SVGID_17_);}
	.st25{fill:url(#SVGID_18_);}
	.st26{fill:url(#SVGID_19_);}
	.st27{fill:url(#SVGID_20_);}
	.st28{fill:url(#SVGID_21_);}
	.st29{fill:url(#SVGID_22_);}
	.st30{fill:url(#SVGID_23_);}
	.st31{fill:url(#SVGID_24_);}
	.st32{fill:url(#SVGID_25_);}
	.st33{fill:url(#SVGID_26_);}
	.st34{display:inline;fill:url(#SVGID_27_);}
	.st35{display:inline;fill:url(#SVGID_28_);}
	.st36{display:inline;fill:url(#SVGID_29_);}
	.st37{fill:url(#SVGID_30_);}
	.st38{fill:url(#SVGID_31_);}
	.st39{fill:url(#SVGID_32_);}
	.st40{fill:url(#SVGID_33_);}
	.st41{fill:url(#SVGID_34_);}
	.st42{display:none;fill:url(#SVGID_35_);}
	.st43{display:inline;fill:url(#SVGID_36_);}
	.st44{display:inline;fill:url(#SVGID_37_);}
	.st45{display:inline;fill:url(#SVGID_38_);}
	.st46{fill:#8EFCFE;}
	.st47{fill:none;stroke:#3FAE79;stroke-miterlimit:10;}
	.st48{fill:#001B36;}
	.st49{fill:#369668;}
	.st50{fill:#3FAE79;fill-opacity:0.8;}
	.st51{opacity:0.9;fill:#001F3F;}
	.st52{fill:none;stroke:#001F3F;stroke-width:3;stroke-miterlimit:10;}
	.st53{enable-background:new    ;}
</style>
<g>
	<path class="st1" d="M42.31,21.2c0,1.56,0,3,0,4.44c0,1.56-0.02,3.11,0.01,4.67c0.04,2.04-1.52,4.19-4.14,4.12
		c-4.7-0.11-9.41-0.05-14.12-0.01c-0.77,0.01-1.08-0.24-1.33-0.96c-2.38-6.67-6.88-11.26-13.54-13.69c-1.21-0.44-1.52-1.14-0.93-2.3
		c0.19-0.37,0.48-0.7,0.78-0.99C14.64,11.28,20.26,6.1,25.88,0.92c1.33-1.22,2.49-1.23,3.84,0.01c5.65,5.2,11.29,10.41,16.93,15.62
		c0.99,0.91,1.23,1.92,0.8,2.97c-0.47,1.16-1.42,1.62-2.6,1.67C44.05,21.22,43.25,21.2,42.31,21.2z M27.82,15.88
		c-0.81,0-1.63-0.01-2.44,0c-1.18,0.02-1.63,0.42-1.64,1.58c-0.03,1.63,0,3.26-0.01,4.88c-0.01,0.99,0.49,1.58,1.45,1.61
		c1.77,0.06,3.54,0.05,5.31-0.01c0.84-0.03,1.38-0.55,1.39-1.45c0.02-1.73,0.03-3.47,0-5.2c-0.02-0.93-0.53-1.42-1.49-1.42
		C29.52,15.89,28.67,15.88,27.82,15.88z"/>
	<path class="st1" d="M21.05,39.8c0.05,0.92,0.01,1.89-0.94,2.28c-0.54,0.23-1.33,0.22-1.88,0c-0.91-0.36-0.96-1.3-1-2.17
		c-0.15-3.27-1.15-6.25-3.21-8.83c-2.84-3.56-6.53-5.55-11.1-5.85c-0.35-0.02-0.71-0.04-1.06-0.1c-1.22-0.19-1.93-1-1.85-2.05
		c0.09-1.11,0.96-1.88,2.22-1.81c1.23,0.08,2.47,0.2,3.68,0.46C14.44,23.55,20.75,31.11,21.05,39.8z"/>
	<path class="st1" d="M2.52,29.31c5.61,0.1,10.6,5.25,10.57,10.93c-0.01,1.25-0.77,2.14-1.85,2.18c-1.04,0.04-1.79-0.73-1.94-1.98
		c-0.53-4.56-2.89-6.9-7.42-7.34c-1.18-0.11-1.93-0.93-1.87-2.02c0.06-1.06,0.82-1.74,1.98-1.78C2.17,29.3,2.35,29.31,2.52,29.31z"
		/>
	<path class="st1" d="M0,39.85c-0.01-1.51,1.12-2.67,2.58-2.65c1.43,0.02,2.52,1.13,2.54,2.59C5.13,41.3,4,42.46,2.54,42.44
		C1.11,42.43,0.01,41.31,0,39.85z"/>
</g>
</svg>
