<?xml version="1.0" encoding="utf-8"?>
<!-- Generator: Adobe Illustrator 23.0.3, SVG Export Plug-In . SVG Version: 6.00 Build 0)  -->
<svg version="1.1" id="Layer_1" xmlns="http://www.w3.org/2000/svg" xmlns:xlink="http://www.w3.org/1999/xlink" x="0px" y="0px"
	 viewBox="0 0 46.53 36.11" style="enable-background:new 0 0 46.53 36.11;" xml:space="preserve">
<style type="text/css">
	.st0{fill:#001F3F;}
	.st1{fill:#FFFFFF;}
	.st2{fill:none;}
	.st3{fill:#3FAE79;}
	.st4{fill:#2D3B7A;}
	.st5{fill:#232323;}
	.st6{fill:#00CDD0;}
	.st7{fill:#333333;}
	.st8{fill:#FFD600;}
	.st9{clip-path:url(#SVGID_6_);fill:#3FAE79;}
	.st10{clip-path:url(#SVGID_6_);fill:#001F3F;}
	.st11{opacity:0.4;fill:url(#);}
	.st12{display:none;}
	.st13{display:inline;fill:url(#SVGID_7_);}
	.st14{display:inline;fill:url(#SVGID_8_);}
	.st15{display:inline;}
	.st16{fill:url(#SVGID_9_);}
	.st17{fill:url(#SVGID_10_);}
	.st18{fill:url(#SVGID_11_);}
	.st19{fill:url(#SVGID_12_);}
	.st20{fill:url(#SVGID_13_);}
	.st21{fill:url(#SVGID_14_);}
	.st22{fill:url(#SVGID_15_);}
	.st23{fill:url(#SVGID_16_);}
	.st24{fill:url(#SVGID_17_);}
	.st25{fill:url(#SVGID_18_);}
	.st26{fill:url(#SVGID_19_);}
	.st27{fill:url(#SVGID_20_);}
	.st28{fill:url(#SVGID_21_);}
	.st29{fill:url(#SVGID_22_);}
	.st30{fill:url(#SVGID_23_);}
	.st31{fill:url(#SVGID_24_);}
	.st32{fill:url(#SVGID_25_);}
	.st33{fill:url(#SVGID_26_);}
	.st34{display:inline;fill:url(#SVGID_27_);}
	.st35{display:inline;fill:url(#SVGID_28_);}
	.st36{display:inline;fill:url(#SVGID_29_);}
	.st37{fill:url(#SVGID_30_);}
	.st38{fill:url(#SVGID_31_);}
	.st39{fill:url(#SVGID_32_);}
	.st40{fill:url(#SVGID_33_);}
	.st41{fill:url(#SVGID_34_);}
	.st42{display:none;fill:url(#SVGID_35_);}
	.st43{display:inline;fill:url(#SVGID_36_);}
	.st44{display:inline;fill:url(#SVGID_37_);}
	.st45{display:inline;fill:url(#SVGID_38_);}
	.st46{fill:#8EFCFE;}
	.st47{fill:none;stroke:#3FAE79;stroke-miterlimit:10;}
	.st48{fill:#001B36;}
	.st49{fill:#369668;}
	.st50{fill:#3FAE79;fill-opacity:0.8;}
	.st51{opacity:0.9;fill:#001F3F;}
	.st52{fill:none;stroke:#001F3F;stroke-width:3;stroke-miterlimit:10;}
	.st53{enable-background:new    ;}
</style>
<g>
	<path class="st1" d="M23.19,36.11c-5.95,0-11.89,0-17.84,0c-3.12,0-5.32-2.13-5.33-5.24c-0.02-8.54-0.02-17.08,0-25.62
		C0.02,2.14,2.23,0,5.35,0c11.96,0,23.92,0,35.89,0c3.05,0,5.27,2.14,5.28,5.19c0.03,8.57,0.03,17.15,0,25.72
		c-0.01,3.05-2.23,5.19-5.28,5.19C35.22,36.11,29.2,36.11,23.19,36.11z M14.13,28.46c2.56,0,5.11,0.01,7.67,0
		c1.11-0.01,1.56-0.5,1.53-1.61c-0.09-3.13-2.3-5.76-5.44-6.09c-2.25-0.24-4.56-0.29-6.82-0.11c-3.5,0.28-5.79,2.7-6.04,6
		c-0.09,1.28,0.36,1.8,1.64,1.81C9.16,28.47,11.65,28.46,14.13,28.46z M14.26,7.65c-2.97-0.02-5.31,2.26-5.32,5.19
		c-0.01,2.89,2.3,5.22,5.17,5.24c2.96,0.01,5.33-2.29,5.35-5.19C19.47,10.04,17.11,7.67,14.26,7.65z M34.93,12.89
		c1.66,0,3.32,0.01,4.98,0c1.04-0.01,1.64-0.5,1.6-1.33c-0.04-0.94-0.64-1.34-1.51-1.35c-3.35-0.01-6.7-0.02-10.06,0
		c-1.03,0.01-1.6,0.56-1.54,1.42c0.07,0.94,0.66,1.28,1.56,1.27C31.61,12.88,33.27,12.89,34.93,12.89z M34.97,18.08
		c1.69,0,3.39,0,5.08,0c0.87,0,1.4-0.41,1.44-1.28c0.04-0.88-0.5-1.38-1.34-1.39c-3.46-0.03-6.91-0.04-10.37,0
		c-0.94,0.01-1.47,0.62-1.39,1.45c0.09,0.88,0.64,1.23,1.49,1.23C31.58,18.07,33.28,18.08,34.97,18.08z M34.89,23.27
		c1.69,0,3.39,0.01,5.08,0c0.98-0.01,1.52-0.48,1.54-1.3c0.01-0.82-0.52-1.37-1.48-1.38c-3.39-0.03-6.77-0.03-10.16,0
		c-0.97,0.01-1.49,0.55-1.48,1.38c0.01,0.82,0.54,1.29,1.52,1.3C31.57,23.28,33.23,23.27,34.89,23.27z"/>
</g>
</svg>
