<svg id="Layer_1" data-name="Layer 1" xmlns="http://www.w3.org/2000/svg" viewBox="0 0 468.19 146.33"><defs><style>.cls-1,.cls-3{fill:#fff;}.cls-2{fill:#3fae79;}.cls-3{font-size:29.79px;font-family:Montserrat-LightItalic, Montserrat;font-weight:300;font-style:italic;}.cls-4{letter-spacing:0em;}.cls-5{letter-spacing:-0.02em;}.cls-6{letter-spacing:-0.02em;}.cls-7{letter-spacing:0em;}.cls-8{letter-spacing:-0.01em;}.cls-9{letter-spacing:-0.01em;}.cls-10{letter-spacing:-0.02em;}</style></defs><title>logo</title><polygon class="cls-1" points="114.46 50.71 132.67 50.71 132.67 57.11 114.46 57.11 114.46 71.75 107.34 71.75 107.34 35.42 134.17 35.42 134.17 42.23 114.52 42.23 114.46 50.71"/><rect class="cls-1" x="138.6" y="35.42" width="7.06" height="5.78"/><rect class="cls-1" x="138.6" y="45.85" width="7.06" height="25.9"/><polygon class="cls-1" points="148.56 71.75 156.83 71.75 165.48 58.38 173.93 71.75 182.2 71.75 157.76 35.42 149.5 35.42 161.46 52.99 148.56 71.75"/><polygon class="cls-1" points="167.74 44.01 171.81 50.03 181.31 35.42 173.64 35.42 167.74 44.01"/><polygon class="cls-2" points="207.6 35.73 234.87 35.73 234.87 42.77 215.12 42.77 215.12 50.34 232.97 50.34 232.97 56.75 215.2 56.75 215.2 65 234.87 65 234.87 72.06 207.6 72.06 207.6 35.73"/><polygon class="cls-2" points="235.31 72.06 243.58 72.06 252.22 58.69 260.68 72.06 268.94 72.06 244.51 35.73 236.25 35.73 248.21 53.3 235.31 72.06"/><polygon class="cls-2" points="254.49 44.32 258.56 50.34 268.06 35.73 260.39 35.73 254.49 44.32"/><path class="cls-2" d="M271.72,72l7,.1V60h7.83c6.78.18,12.45-6,12.47-12.7A12,12,0,0,0,286.8,35.12H271.72l0,6.5,14.88-.1a5.73,5.73,0,0,1,0,11.45l-14.92,0Z"/><path class="cls-2" d="M324.78,58.14h0a13.16,13.16,0,0,0,6.08-10.89,12,12,0,0,0-12.23-12.13H303.54l0,6.5,14.88-.1a5.73,5.73,0,0,1,0,11.45l-14.92,0V72l7,.1V60h8.15l6.42,12.1h8Z"/><rect class="cls-2" x="336.87" y="36.05" width="26.36" height="6.57"/><rect class="cls-2" x="336.87" y="50.77" width="26.36" height="6.57"/><rect class="cls-2" x="336.87" y="65.49" width="26.36" height="6.57"/><path class="cls-2" d="M384.29,51.08c-5.91-.94-8.83-2.25-8.83-5.14a4.91,4.91,0,0,1,.07-.86H369a7.75,7.75,0,0,0,0,.84c0,7.14,7.23,9.21,13.14,10.4,4.9.91,8.12,2.1,8.12,5.29,0,3.42-2.57,5.14-7.86,5.14-5,0-7.85-2.58-7.85-5.8h-6.46c0,5.39,4.15,11.11,14.34,11.11,8.71,0,14.36-3.74,14.36-10.42C396.79,54.75,390.77,52.25,384.29,51.08Z"/><path class="cls-2" d="M389,46.37h6.46c0-6.11-4.41-10.24-13-10.32v5.52C387,41.67,389,43.78,389,46.37Z"/><path class="cls-2" d="M421.78,46.37h6.46c0-6.11-4.41-10.24-13-10.32v5.52C419.77,41.67,421.78,43.78,421.78,46.37Z"/><path class="cls-2" d="M417.07,51.08c-5.91-.94-8.84-2.25-8.84-5.14a4.11,4.11,0,0,1,.08-.86h-6.5c0,.28,0,.55,0,.84,0,7.14,7.24,9.21,13.14,10.4,4.9.91,8.12,2.1,8.12,5.29,0,3.42-2.57,5.14-7.86,5.14-5,0-7.85-2.58-7.85-5.8h-6.45c0,5.39,4.14,11.11,14.33,11.11,8.71,0,14.36-3.74,14.36-10.42C429.56,54.75,423.55,52.25,417.07,51.08Z"/><text class="cls-3" transform="translate(107.34 102.71)"><tspan class="cls-4">m</tspan><tspan x="31.72" y="0">a</tspan><tspan class="cls-5" x="51.83" y="0">k</tspan><tspan x="68.37" y="0">es </tspan><tspan class="cls-6" x="108.07" y="0">y</tspan><tspan class="cls-7" x="123.35" y="0">our li</tspan><tspan class="cls-8" x="196.69" y="0">f</tspan><tspan x="206.2" y="0">e be</tspan><tspan class="cls-9" x="269.59" y="0">t</tspan><tspan class="cls-10" x="281.03" y="0">t</tspan><tspan x="292.32" y="0">er</tspan></text><rect class="cls-2" x="20.22" y="35.15" width="36.26" height="36.26" transform="translate(48.91 -11.51) rotate(45)"/><rect class="cls-1" x="45.86" y="35.15" width="36.26" height="36.26" transform="translate(56.42 -29.64) rotate(45)"/><rect class="cls-1" x="453.47" y="129.68" width="1" height="1"/><rect class="cls-1" x="454.47" y="123.62" width="1" height="1"/><polygon class="cls-2" points="197.65 56.45 183.24 56.45 183.24 52.95 186.1 50.73 200.51 50.73 200.51 54.22 197.65 56.45"/></svg>